<svg width="41" height="48" viewBox="0 0 41 48" fill="none" xmlns="http://www.w3.org/2000/svg">
<g clip-path="url(#clip0_55_25)">
<path d="M9.49561 8.73809V17.492L10.7459 17.5236C12.2651 17.5605 13.1909 17.7029 14.3621 18.0826C16.8072 18.8842 18.5084 20.3818 18.9516 22.1379C19.0386 22.4807 19.0544 21.2783 19.0624 14.5811C19.0703 9.44473 19.0386 6.44942 18.9911 6.14356C18.6746 4.33478 17.6855 2.86876 16.0317 1.76134C15.2325 1.234 14.6707 0.959778 13.729 0.648645C12.637 0.284779 11.5371 0.0896615 10.2236 0.0211068L9.49561 -0.0158072V8.73809Z" fill="white"/>
<path d="M4.7478 12.7037V22.2487L9.20279 22.2698C14.1642 22.2908 14.2671 22.3014 15.9525 22.7022L16.7043 22.8815L16.6489 22.5809C16.3957 21.1887 14.908 19.9072 12.9219 19.3799C12.0198 19.1373 11.3947 19.0899 9.17905 19.0899H7.12169V11.127V3.16408H5.93474H4.7478V12.7037Z" fill="white"/>
<path d="M26.8248 4.80409C25.3134 4.9201 23.5804 5.26288 22.2511 5.71112L21.436 5.98534L21.4439 14.8711C21.4439 19.7543 21.4598 23.7568 21.4677 23.7621C21.4756 23.7726 21.7921 23.6461 22.1561 23.4879C23.3589 22.9605 24.6091 22.6125 25.8831 22.4437C27.1729 22.2697 27.98 22.2433 31.8732 22.2486L35.7664 22.2539V13.5V4.74608L31.5963 4.75135C29.2936 4.75663 27.1492 4.77772 26.8248 4.80409Z" fill="white"/>
<path d="M0 15.873V25.418H6.31452C10.2314 25.418 12.819 25.4391 13.1355 25.4707C14.5361 25.6184 15.992 26.1141 16.9337 26.7574L17.2819 27H20.2571H23.2324L23.6201 26.7363C24.3481 26.2406 25.4005 25.8293 26.5637 25.592L27.2601 25.4443L33.8911 25.4285L40.5142 25.4127V16.6641V7.91014H39.3273H38.1404V15.873V23.8359H32.9811C27.3788 23.8359 26.9515 23.8518 25.6379 24.126C24.7833 24.3053 23.6439 24.6955 22.8051 25.1016L22.1483 25.418H20.2729H18.3976L17.6459 25.0699C16.7121 24.6375 15.7547 24.3158 14.8763 24.1312C13.5628 23.8518 13.1434 23.8359 7.54103 23.8359H2.37388V15.082V6.32811H1.18694H0V15.873Z" fill="white"/>
</g>
<path d="M2.72938 32.3636H5.76347L8.96802 40.1818H9.10438L12.3089 32.3636H15.343V44H12.9567V36.4261H12.8601L9.8487 43.9432H8.2237L5.21234 36.3977H5.11575V44H2.72938V32.3636ZM17.37 44V32.3636H19.8302V37.1648H24.8246V32.3636H27.2791V44H24.8246V39.1932H19.8302V44H17.37ZM29.3075 44V32.3636H33.8984C34.7772 32.3636 35.5272 32.5208 36.1484 32.8352C36.7734 33.1458 37.2488 33.5871 37.5746 34.1591C37.9041 34.7273 38.0689 35.3958 38.0689 36.1648C38.0689 36.9375 37.9022 37.6023 37.5689 38.1591C37.2355 38.7121 36.7526 39.1364 36.12 39.4318C35.4912 39.7273 34.7299 39.875 33.8359 39.875H30.7621V37.8977H33.4382C33.9079 37.8977 34.298 37.8333 34.6086 37.7045C34.9192 37.5758 35.1503 37.3826 35.3018 37.125C35.4571 36.8674 35.5348 36.5473 35.5348 36.1648C35.5348 35.7784 35.4571 35.4527 35.3018 35.1875C35.1503 34.9223 34.9174 34.7216 34.603 34.5852C34.2924 34.4451 33.9003 34.375 33.4268 34.375H31.7677V44H29.3075ZM35.5916 38.7045L38.4836 44H35.7677L32.9382 38.7045H35.5916Z" fill="white"/>
<defs>
<clipPath id="clip0_55_25">
<rect width="40.5142" height="27" fill="white"/>
</clipPath>
</defs>
</svg>
