<?xml version="1.0" encoding="UTF-8"?>
<svg xmlns="http://www.w3.org/2000/svg" id="Layer_1" data-name="Layer 1" viewBox="0 0 24 24">
  <path d="m8.5,13.5c0,1.93,1.57,3.5,3.5,3.5s3.5-1.57,3.5-3.5-1.57-3.5-3.5-3.5-3.5,1.57-3.5,3.5Zm5,0c0,.827-.673,1.5-1.5,1.5s-1.5-.673-1.5-1.5.673-1.5,1.5-1.5,1.5.673,1.5,1.5Zm.914-13.5H5c-1.654,0-3,1.346-3,3v21h20V7.586L14.414,0Zm.586,3.414l3.586,3.586h-3.586v-3.586Zm0,18.586h-6v-1c0-.551.449-1,1-1h4c.552,0,1,.449,1,1v1Zm5,0h-3v-1c0-1.654-1.346-3-3-3h-4c-1.654,0-3,1.346-3,3v1h-3V3c0-.551.449-1,1-1h8v7h7v13Z"/>
</svg>
