<svg width="744" height="740" viewBox="0 0 744 740" fill="none" xmlns="http://www.w3.org/2000/svg">
<ellipse cx="371.506" cy="370" rx="371.506" ry="370" fill="#07416B"/>
<g clip-path="url(#clip0_46_2)">
<path d="M237.617 295.736V432.257L253.181 432.75C272.093 433.326 283.618 435.547 298.197 441.468C328.634 453.969 349.813 477.325 355.329 504.712C356.412 510.058 356.609 491.306 356.708 386.86C356.806 306.756 356.412 260.043 355.821 255.273C351.881 227.064 339.568 204.201 318.981 186.93C309.032 178.706 302.038 174.429 290.317 169.577C276.723 163.902 263.031 160.859 246.679 159.79L237.617 159.214V295.736Z" fill="white"/>
<path d="M178.515 357.582V506.439L233.972 506.768C295.734 507.097 297.015 507.262 317.996 513.512L327.354 516.308L326.664 511.62C323.512 489.909 304.994 469.924 280.269 461.7C269.04 457.917 261.258 457.176 233.677 457.176H208.066V332.991V208.806H193.29H178.515V357.582Z" fill="white"/>
<path d="M453.34 234.384C434.526 236.193 412.954 241.539 396.405 248.529L386.259 252.806L386.358 391.383C386.358 467.539 386.555 529.96 386.653 530.042C386.752 530.207 390.692 528.233 395.223 525.766C410.195 517.542 425.759 512.114 441.618 509.482C457.674 506.768 467.722 506.357 516.185 506.439L564.649 506.521V370V233.479L512.738 233.561C484.073 233.643 457.379 233.972 453.34 234.384Z" fill="white"/>
<path d="M119.413 407.009V555.866H198.019C246.778 555.866 278.989 556.195 282.929 556.689C300.364 558.991 318.489 566.722 330.211 576.756L334.545 580.539H371.582H408.619L413.446 576.427C422.508 568.696 435.609 562.281 450.089 558.58L458.758 556.278L541.304 556.031L623.751 555.784V419.345V282.824H608.976H594.2V407.009V531.194H529.976C460.235 531.194 454.916 531.441 438.565 535.717C427.926 538.513 413.742 544.599 403.3 550.932L395.124 555.866H371.779H348.434L339.076 550.438C327.452 543.695 315.533 538.678 304.6 535.799C288.248 531.441 283.027 531.194 213.287 531.194H148.964V394.673V258.151H134.188H119.413V407.009Z" fill="white"/>
</g>
<defs>
<clipPath id="clip0_46_2">
<rect width="504.339" height="421.077" fill="white" transform="translate(119.413 159.461)"/>
</clipPath>
</defs>
</svg>
