<svg width="522" height="536" viewBox="0 0 522 536" fill="none" xmlns="http://www.w3.org/2000/svg">
<ellipse cx="260.555" cy="268" rx="260.555" ry="268" fill="#07416B"/>
<path d="M161.677 203.662V303.103L173.164 303.462C187.122 303.881 195.628 305.499 206.388 309.812C228.852 318.917 244.482 335.93 248.553 355.878C249.353 359.772 249.498 346.114 249.571 270.036C249.644 211.689 249.353 177.664 248.917 174.189C246.009 153.642 236.921 136.989 221.727 124.409C214.385 118.419 209.223 115.304 200.572 111.769C190.539 107.636 180.434 105.42 168.366 104.641L161.677 104.222V203.662Z" fill="white"/>
<path d="M118.069 248.71V357.136L158.999 357.375C204.582 357.615 205.527 357.735 221.012 362.287L227.918 364.324L227.409 360.91C225.083 345.095 211.415 330.539 193.168 324.548C184.88 321.793 179.137 321.253 158.781 321.253H139.879V230.799V140.344H128.974H118.069V248.71Z" fill="white"/>
<path d="M320.892 158.974C307.007 160.292 291.085 164.186 278.872 169.277L271.384 172.392L271.456 273.33C271.456 328.801 271.602 374.268 271.675 374.328C271.747 374.448 274.655 373.01 277.999 371.213C289.05 365.223 300.536 361.269 312.241 359.352C324.091 357.375 331.506 357.076 367.274 357.136L403.043 357.196V257.755V158.315L364.73 158.375C343.574 158.435 323.873 158.674 320.892 158.974Z" fill="white"/>
<path d="M74.4402 284.713V393.139H132.454C168.441 393.139 192.213 393.378 195.121 393.738C207.989 395.415 221.366 401.046 230.017 408.354L233.216 411.11H260.551H287.886L291.448 408.115C298.136 402.484 307.805 397.811 318.492 395.116L324.89 393.438L385.812 393.259L446.661 393.079V293.698V194.258H435.756H424.851V284.713V375.168H377.451C325.98 375.168 322.054 375.347 309.986 378.462C302.135 380.499 291.666 384.932 283.96 389.544L277.926 393.139H260.696H243.466L236.56 389.185C227.981 384.273 219.185 380.619 211.115 378.522C199.047 375.347 195.194 375.168 143.723 375.168H96.25V275.727V176.287H85.3451H74.4402V284.713Z" fill="white"/>
</svg>
