<svg width="556" height="580" viewBox="0 0 556 580" fill="none" xmlns="http://www.w3.org/2000/svg">
<g clip-path="url(#clip0_55_120)">
<path d="M130.195 161.816V323.926L147.338 324.512C168.169 325.195 180.863 327.832 196.92 334.863C230.445 349.707 253.772 377.441 259.848 409.961C261.041 416.309 261.258 394.043 261.367 270.02C261.475 174.902 261.041 119.434 260.39 113.77C256.051 80.2734 242.489 53.125 219.813 32.6172C208.855 22.8516 201.152 17.7734 188.241 12.0117C173.268 5.27345 158.187 1.66016 140.177 0.390633L130.195 -0.292961V161.816Z" fill="white"/>
<path d="M65.0975 235.254V412.012L126.181 412.402C194.208 412.793 195.618 412.988 218.728 420.41L229.035 423.73L228.275 418.164C224.804 392.383 204.406 368.652 177.174 358.887C164.805 354.395 156.234 353.516 125.855 353.516H97.6463V206.055V58.5938H81.3719H65.0975V235.254Z" fill="white"/>
<path d="M367.801 88.9649C347.079 91.1133 323.318 97.461 305.091 105.762L293.916 110.84L294.024 275.391C294.024 365.82 294.241 439.941 294.35 440.039C294.458 440.234 298.798 437.891 303.789 434.961C320.28 425.195 337.423 418.75 354.89 415.625C372.575 412.402 383.642 411.914 437.022 412.012L490.402 412.109V250V87.8907L433.224 87.9883C401.652 88.086 372.25 88.4766 367.801 88.9649Z" fill="white"/>
<path d="M0 293.945V470.703H86.5798C140.285 470.703 175.763 471.094 180.103 471.68C199.307 474.414 219.27 483.594 232.181 495.508L236.955 500H277.75H318.544L323.86 495.117C333.842 485.938 348.272 478.32 364.221 473.926L373.769 471.191L464.688 470.898L555.499 470.605V308.594V146.484H539.225H522.951V293.945V441.406H452.211C375.396 441.406 369.537 441.699 351.527 446.777C339.809 450.098 324.186 457.324 312.685 464.844L303.68 470.703H277.967H252.253L241.946 464.258C229.143 456.25 216.015 450.293 203.972 446.875C185.962 441.699 180.212 441.406 103.397 441.406H32.5488V279.297V117.188H16.2744H0V293.945Z" fill="white"/>
</g>
<path d="M146.587 571V541.909H166.189V546.98H152.737V553.912H165.181V558.983H152.737V565.929H166.246V571H146.587ZM186.86 550.276C186.747 549.13 186.259 548.24 185.397 547.605C184.535 546.971 183.366 546.653 181.889 546.653C180.885 546.653 180.037 546.795 179.346 547.08C178.655 547.354 178.124 547.738 177.755 548.23C177.395 548.723 177.215 549.281 177.215 549.906C177.196 550.427 177.305 550.882 177.542 551.27C177.788 551.658 178.124 551.994 178.551 552.278C178.977 552.553 179.469 552.795 180.028 553.003C180.587 553.202 181.183 553.372 181.818 553.514L184.431 554.139C185.7 554.423 186.865 554.802 187.926 555.276C188.986 555.749 189.905 556.331 190.681 557.023C191.458 557.714 192.059 558.528 192.485 559.466C192.921 560.403 193.143 561.478 193.153 562.69C193.143 564.471 192.689 566.014 191.789 567.321C190.899 568.618 189.611 569.627 187.926 570.347C186.249 571.057 184.228 571.412 181.86 571.412C179.512 571.412 177.466 571.052 175.724 570.332C173.991 569.613 172.637 568.547 171.661 567.136C170.695 565.716 170.189 563.959 170.141 561.866H176.093C176.159 562.842 176.439 563.656 176.931 564.31C177.433 564.954 178.101 565.441 178.934 565.773C179.777 566.095 180.729 566.256 181.789 566.256C182.831 566.256 183.735 566.104 184.502 565.801C185.279 565.498 185.88 565.077 186.306 564.537C186.732 563.997 186.945 563.377 186.945 562.676C186.945 562.023 186.751 561.473 186.363 561.028C185.984 560.583 185.426 560.205 184.687 559.892C183.958 559.58 183.063 559.295 182.002 559.04L178.835 558.244C176.382 557.648 174.445 556.715 173.025 555.446C171.605 554.177 170.899 552.468 170.908 550.318C170.899 548.557 171.368 547.018 172.315 545.702C173.271 544.385 174.583 543.358 176.249 542.619C177.916 541.881 179.81 541.511 181.931 541.511C184.09 541.511 185.975 541.881 187.585 542.619C189.204 543.358 190.463 544.385 191.363 545.702C192.263 547.018 192.727 548.543 192.755 550.276H186.86ZM222.957 552.094H216.736C216.622 551.289 216.39 550.574 216.04 549.949C215.69 549.314 215.24 548.775 214.69 548.33C214.141 547.884 213.507 547.544 212.787 547.307C212.077 547.07 211.305 546.952 210.472 546.952C208.966 546.952 207.654 547.326 206.537 548.074C205.42 548.812 204.553 549.892 203.938 551.312C203.322 552.723 203.014 554.437 203.014 556.455C203.014 558.528 203.322 560.271 203.938 561.682C204.563 563.093 205.434 564.158 206.551 564.878C207.669 565.598 208.961 565.957 210.429 565.957C211.253 565.957 212.015 565.848 212.716 565.631C213.426 565.413 214.056 565.096 214.605 564.679C215.154 564.253 215.609 563.737 215.969 563.131C216.338 562.525 216.594 561.833 216.736 561.057L222.957 561.085C222.797 562.42 222.394 563.708 221.75 564.949C221.116 566.18 220.259 567.283 219.179 568.259C218.109 569.224 216.831 569.991 215.344 570.56C213.867 571.118 212.195 571.398 210.33 571.398C207.735 571.398 205.415 570.811 203.369 569.636C201.333 568.462 199.724 566.762 198.54 564.537C197.366 562.312 196.779 559.617 196.779 556.455C196.779 553.282 197.375 550.583 198.568 548.358C199.761 546.133 201.381 544.437 203.426 543.273C205.472 542.098 207.773 541.511 210.33 541.511C212.015 541.511 213.578 541.748 215.017 542.222C216.466 542.695 217.749 543.386 218.867 544.295C219.984 545.195 220.893 546.298 221.594 547.605C222.304 548.912 222.759 550.408 222.957 552.094ZM254.101 556.455C254.101 559.627 253.5 562.326 252.297 564.551C251.104 566.777 249.475 568.476 247.411 569.651C245.356 570.815 243.045 571.398 240.479 571.398C237.894 571.398 235.574 570.811 233.519 569.636C231.464 568.462 229.84 566.762 228.646 564.537C227.453 562.312 226.857 559.617 226.857 556.455C226.857 553.282 227.453 550.583 228.646 548.358C229.84 546.133 231.464 544.437 233.519 543.273C235.574 542.098 237.894 541.511 240.479 541.511C243.045 541.511 245.356 542.098 247.411 543.273C249.475 544.437 251.104 546.133 252.297 548.358C253.5 550.583 254.101 553.282 254.101 556.455ZM247.865 556.455C247.865 554.4 247.557 552.667 246.942 551.256C246.336 549.845 245.479 548.775 244.371 548.045C243.263 547.316 241.966 546.952 240.479 546.952C238.992 546.952 237.695 547.316 236.587 548.045C235.479 548.775 234.617 549.845 234.002 551.256C233.395 552.667 233.092 554.4 233.092 556.455C233.092 558.509 233.395 560.242 234.002 561.653C234.617 563.064 235.479 564.134 236.587 564.864C237.695 565.593 238.992 565.957 240.479 565.957C241.966 565.957 243.263 565.593 244.371 564.864C245.479 564.134 246.336 563.064 246.942 561.653C247.557 560.242 247.865 558.509 247.865 556.455ZM258.657 571V541.909H264.808V565.929H277.279V571H258.657ZM287.109 571H280.518L290.56 541.909H298.487L308.515 571H301.924L294.637 548.557H294.41L287.109 571ZM286.697 559.565H302.265V564.366H286.697V559.565ZM321.274 541.909H328.859L336.871 561.455H337.212L345.223 541.909H352.808V571H346.842V552.065H346.601L339.073 570.858H335.01L327.482 551.994H327.24V571H321.274V541.909ZM357.876 571V541.909H364.026V553.912H376.512V541.909H382.649V571H376.512V558.983H364.026V571H357.876ZM387.72 571V541.909H399.197C401.394 541.909 403.269 542.302 404.822 543.088C406.384 543.865 407.573 544.968 408.387 546.398C409.211 547.818 409.623 549.49 409.623 551.412C409.623 553.344 409.206 555.006 408.373 556.398C407.54 557.78 406.332 558.841 404.751 559.58C403.179 560.318 401.275 560.688 399.041 560.688H391.356V555.744H398.046C399.221 555.744 400.196 555.583 400.972 555.261C401.749 554.939 402.327 554.456 402.705 553.812C403.094 553.169 403.288 552.368 403.288 551.412C403.288 550.446 403.094 549.632 402.705 548.969C402.327 548.306 401.744 547.804 400.958 547.463C400.182 547.113 399.202 546.938 398.018 546.938H393.87V571H387.72ZM403.43 557.761L410.66 571H403.87L396.796 557.761H403.43Z" fill="white"/>
<defs>
<clipPath id="clip0_55_120">
<rect width="555.499" height="500" fill="white"/>
</clipPath>
</defs>
</svg>
